<?xml version="1.0" encoding="utf-8"?>
<!-- Generator: Adobe Illustrator 20.1.0, SVG Export Plug-In . SVG Version: 6.00 Build 0)  -->
<svg version="1.1" id="_x31_" xmlns="http://www.w3.org/2000/svg" xmlns:xlink="http://www.w3.org/1999/xlink" x="0px" y="0px"
	 viewBox="0 0 512 512" style="enable-background:new 0 0 512 512;" xml:space="preserve">
<style type="text/css">
	.st0{fill:#AD2131;}
	.st1{fill:#FFFFFF;}
</style>
<circle class="st0" cx="376.8" cy="375.8" r="123.8"/>
<polygon class="st0" points="215,14.8 279.8,146.1 424.8,167.2 319.9,269.4 344.6,413.8 215,345.6 85.4,413.8 110.1,269.4 
	5.2,167.2 150.2,146.1 "/>
<g>
	<g>
		<path class="st0" d="M88.1,426.7c-2.2,0-4.3-0.7-6.1-1.9c-3.3-2.3-5-6.4-4.4-10.4L100.6,273L3,172.9c-2.8-2.9-3.8-7-2.5-10.8
			s4.5-6.5,8.5-7.1l134.4-20.5L203.7,6.1c3.5-7.5,15.8-7.5,19.3,0l60.2,128.3l134.4,20.5c3.9,0.6,7.2,3.4,8.5,7.1s0.3,8-2.5,10.8
			L377,220.8c-4.1,4.2-10.9,4.3-15.1,0.2c-4.2-4.1-4.3-10.9-0.2-15.1l32.2-33l-119.5-18.3c-3.5-0.5-6.5-2.8-8-6l-53-112.9l-53,112.9
			c-1.5,3.2-4.5,5.5-8,6L32.8,172.9l86.8,89c2.4,2.4,3.4,5.8,2.9,9.2l-20.4,125l106-58.6c5.2-2.9,11.6-1,14.5,4.2
			c2.9,5.2,1,11.6-4.2,14.5L93.2,425.3C91.6,426.2,89.9,426.7,88.1,426.7z"/>
	</g>
</g>
<g>
	<g>
		<path class="st0" d="M373.3,512c-76.5,0-138.7-62.2-138.7-138.7s62.2-138.7,138.7-138.7S512,296.9,512,373.3S449.8,512,373.3,512z
			 M373.3,256C308.6,256,256,308.6,256,373.3s52.6,117.3,117.3,117.3S490.7,438,490.7,373.3S438,256,373.3,256z"/>
	</g>
</g>
<g>
	<g>
		<path class="st1" d="M373.3,448c-5.9,0-10.7-4.8-10.7-10.7v-128c0-5.9,4.8-10.7,10.7-10.7s10.7,4.8,10.7,10.7v128
			C384,443.2,379.2,448,373.3,448z"/>
	</g>
</g>
<g>
	<g>
		<path class="st1" d="M437.3,384h-128c-5.9,0-10.7-4.8-10.7-10.7s4.8-10.7,10.7-10.7h128c5.9,0,10.7,4.8,10.7,10.7
			S443.2,384,437.3,384z"/>
	</g>
</g>
<polygon class="st0" points="393.4,204.1 322.1,279.9 381.9,198 "/>
<polygon class="st0" points="202.7,364.9 245.4,342.4 234.3,335.1 "/>
</svg>
