<?xml version="1.0" encoding="UTF-8"?>
<svg width="98px" height="115px" viewBox="0 0 98 115" version="1.1" xmlns="http://www.w3.org/2000/svg" xmlns:xlink="http://www.w3.org/1999/xlink">
    <!-- Generator: Sketch 51.3 (57544) - http://www.bohemiancoding.com/sketch -->
    <title>Group 12</title>
    <desc>Created with Sketch.</desc>
    <defs></defs>
    <g id="blog" stroke="none" stroke-width="1" fill="none" fill-rule="evenodd">
        <g id="生命科学-nodate" transform="translate(-169.000000, -2335.000000)">
            <g id="FOOTER-Copy-2" transform="translate(-240.000000, 2230.000000)">
                <g id="Footer">
                    <g id="About-Widget" transform="translate(408.609781, 105.000000)">
                        <g id="Group-12" transform="translate(0.390219, 0.000000)">
                            <path d="M66.209067,15.8318388 L66.8412456,15.8409666 C67.1436767,15.8452903 67.349525,15.8030142 67.4607416,15.7146187 C67.572446,15.6262232 67.6295177,15.5075618 67.6314688,15.359115 C67.6329322,15.2635134 67.607567,15.1780003 67.5558611,15.1016151 C67.5036673,15.0252299 67.4314741,14.968061 67.3373302,14.9296282 C67.2441619,14.8911954 67.0705079,14.8700573 66.8158804,14.866214 L66.223213,14.8575666 L66.209067,15.8318388 Z M65.6612765,17.6410642 L65.7095679,14.4127067 L66.8183194,14.4290406 C67.1968461,14.4343251 67.4709852,14.4684343 67.6397613,14.5304072 C67.8085374,14.5923801 67.9421924,14.6985508 68.0407264,14.8479584 C68.1392604,14.9978465 68.1875519,15.1568623 68.1851129,15.3235647 C68.1812106,15.5594462 68.0938958,15.7636206 67.9231685,15.9360879 C67.7519535,16.1090356 67.5275691,16.2036764 67.248552,16.2209712 C67.3617198,16.269973 67.4524491,16.3285831 67.5202522,16.3958406 C67.6485416,16.5245905 67.8046351,16.7402948 67.9880449,17.0424729 L68.3724251,17.6804578 L67.7363442,17.67133 L67.4578149,17.1577714 C67.2383084,16.7547071 67.0607521,16.5015308 66.9246581,16.3992034 C66.8300264,16.3232986 66.6914934,16.2839049 66.5085714,16.2815029 L66.2022379,16.2771792 L66.1817507,17.6487507 L65.6612765,17.6410642 Z M67.0388014,13.497525 C66.6178368,13.4912796 66.2061403,13.593607 65.8037118,13.8040268 C65.4022589,14.0144465 65.085194,14.3185462 64.8539805,14.7168064 C64.6227671,15.1150666 64.5037458,15.5315824 64.4969167,15.9663537 C64.4905754,16.3982426 64.5954507,16.8137976 64.810567,17.2130185 C65.0261711,17.6127199 65.3305534,17.9259475 65.7251772,18.1531816 C66.1193133,18.3804157 66.5324732,18.496675 66.964657,18.5029203 C67.396353,18.5091656 67.8124397,18.4044362 68.2134048,18.1892124 C68.6148578,17.9735081 68.9280203,17.6694084 69.1538681,17.2759523 C69.3797158,16.8829766 69.4953225,16.4707846 69.5021516,16.0384153 C69.5089807,15.6036439 69.4031298,15.1842457 69.1850868,14.7792598 C68.9670437,14.3747543 68.6597346,14.0615267 68.2626719,13.8395771 C67.8656091,13.6176276 67.4578149,13.5037703 67.0388014,13.497525 Z M67.0466061,13.0003003 C67.5500076,13.0079868 68.0397509,13.1444234 68.515836,13.4096099 C68.9914333,13.6752768 69.3597163,14.0504773 69.6201973,14.5352113 C69.8806783,15.0199453 70.0070165,15.5234154 69.9996996,16.0456214 C69.9918949,16.5625429 69.8523864,17.0573656 69.581174,17.5310502 C69.3099615,18.003774 68.9353372,18.3693662 68.4558375,18.6259054 C67.9758501,18.8829249 67.476351,19.0073512 66.9568523,18.9996646 C66.4378415,18.9924584 65.9417569,18.8536199 65.470062,18.5831488 C64.9988548,18.3121974 64.6334985,17.9365165 64.3754565,17.4556258 C64.1174144,16.9742546 63.9925396,16.4755887 64.0003443,15.9591476 C64.0076612,15.4369415 64.1496087,14.9368344 64.4261868,14.4602673 C64.7022772,13.9827394 65.0822672,13.6185884 65.566157,13.3668534 C66.049559,13.1155988 66.5432046,12.9930941 67.0466061,13.0003003 Z" id="Fill-1" fill="#C71628"></path>
                            <path d="M15.7380108,13.0533098 L22,13 L19.1070257,24.1813713 C18.4997312,26.5294495 17.8326869,28.3170408 17.1068721,29.5465906 C16.3805675,30.7751622 15.2884171,31.8208175 13.8318899,32.6820893 C12.3753628,33.5438501 10.6813052,33.9825558 8.75069662,33.9991846 C6.70940373,34.0167915 5.19998323,33.7492641 4.2234146,33.1975807 C3.24684598,32.6454082 2.59302496,31.8315773 2.26097204,30.7555989 C1.92891912,29.6801097 1.91373676,28.3473638 2.21542496,26.7568722 L8.40199208,25.8775044 C8.17621568,26.7852389 8.08022398,27.4587035 8.11401698,27.8969201 C8.14634071,28.3361149 8.3025721,28.6892314 8.58271115,28.957737 C8.7751843,29.1333171 9.09254461,29.2193953 9.53381258,29.2154827 C10.2326909,29.2096137 10.8135387,28.9411082 11.2773353,28.4094771 C11.7401524,27.8788241 12.1334245,26.9867403 12.4571517,25.7337146 L15.7380108,13.0533098 Z" id="Fill-3" fill="#C71628"></path>
                            <path d="M29.8601641,21.1870586 C30.5576342,20.8416959 31.1238548,20.4672752 31.5588259,20.0652254 C31.9937971,19.6626993 32.2572437,19.2830386 32.348218,18.9271959 C32.4439306,18.555157 32.3856502,18.2417106 32.1738505,17.9868568 C31.9625246,17.732003 31.6123681,17.6067197 31.1262239,17.611007 C30.6467132,17.6148179 30.2207448,17.7610611 29.8464232,18.0483075 C29.4716278,18.3360304 29.2342416,18.6732948 29.1347384,19.0615301 C29.0082271,19.5521833 29.2503516,20.2610103 29.8601641,21.1870586 M27.093975,25.428112 C26.3254312,25.9006634 25.7914307,26.3046186 25.4938687,26.6385485 C25.195833,26.9729549 24.9991957,27.3259393 24.9034831,27.6979782 C24.7551759,28.2758057 24.8660509,28.7883715 25.2370557,29.2351993 C25.6075867,29.6820271 26.18281,29.9025829 26.9631994,29.8959138 C27.805186,29.8887684 28.8376502,29.5438821 30.0615396,28.8617313 C29.2603019,28.0790681 28.2709558,26.9343695 27.093975,25.428112 M34.497961,24.1919519 L37.9654108,25.0031968 C37.5934583,25.7015439 37.2646239,26.2612696 36.9789076,26.6818975 C36.6936651,27.1034781 36.3155529,27.5998476 35.8445711,28.1729114 L37.2963702,29.4043079 C37.4764236,29.5443584 37.7109669,29.712038 38,29.9073465 L34.6936507,32.9212906 C34.295164,32.6716768 33.8900439,32.3830013 33.4773425,32.0547877 C33.0646411,31.7265741 32.6922148,31.4455203 32.359116,31.2111501 C31.3977255,31.7727812 30.4751887,32.1834055 29.5915054,32.4434993 C28.3666684,32.8017237 27.031904,32.9870286 25.5872122,32.9994141 C23.3242251,33.0189449 21.7648677,32.5502044 20.9086663,31.5946217 C20.052465,30.6380862 19.8013378,29.471475 20.1552849,28.0943117 C20.4097288,27.1049072 20.974528,26.1659972 21.8501562,25.2775815 C22.7253106,24.3901186 23.9790509,23.6350844 25.6109035,23.0129552 C25.1906209,22.2498228 24.9366508,21.5872029 24.8513623,21.0227136 C24.7646524,20.459177 24.7963987,19.8846841 24.9470749,19.2987585 C25.2645375,18.0635511 25.9847512,17.0431831 27.1091374,16.2357491 C28.2335236,15.428315 29.7312838,15.0162616 31.6005225,15.0005417 C33.5081411,14.983869 34.8116331,15.352097 35.5133676,16.1042731 C36.2136806,16.8564491 36.4278494,17.7629665 36.1554001,18.823349 C36.0028286,19.4168964 35.7190075,19.9880547 35.3048846,20.5363477 C34.8898141,21.0851171 34.4458403,21.5309922 33.9724894,21.8744494 C33.4986646,22.2183829 32.6765786,22.7309487 31.5081267,23.4116704 C32.1169915,24.2524499 32.7751341,25.0322549 33.4844498,25.7525147 C33.8502426,25.2594797 34.1880796,24.7392921 34.497961,24.1919519" id="Fill-5" fill="#C71628"></path>
                            <polygon id="Fill-7" fill="#C71628" points="43.2389318 13.1738475 49.3861122 13.1224942 47.4062749 20.614426 55.8247994 13.0683141 64 13 54.7638109 20.5442275 59.0867849 32.8237968 51.5172439 32.8869285 49.477178 24.7683918 45.425474 28.1105981 44.1471804 32.9486467 38 33"></polygon>
                            <g id="Group-11">
                                <polygon id="Clip-10" points="0 0.119831933 97.7991961 0.119831933 97.7991961 115 0 115"></polygon>
                                <path d="M97.5313294,0.129012605 C96.4432412,-0.251743697 92.9930647,11.0327521 81.4252216,25.3579832 C80.8694078,26.0465336 80.4932608,26.4896218 80.3150353,26.7114076 C65.1946922,47.0151891 43.5871333,59.412479 40.7758784,60.5639286 C37.8440451,61.7603151 37.3319471,63.2601471 39.7425549,64.3096429 C57.7121039,71.8513235 57.2384373,88.364937 54.1351039,96.7415756 C52.2937608,102.143676 47.2121725,103.398046 44.0574373,103.69521 C40.4006922,104.046975 41.0112706,102.057668 41.0112706,102.057668 C42.6830353,98.1640966 42.3477216,93.4887185 42.2247412,92.2836345 C42.2064863,92.1072689 42.307849,91.944916 42.4726235,91.8816176 C43.4550255,91.5023109 46.7000745,90.2155672 47.1929569,89.5705042 C48.0864863,88.3968277 48.3761627,79.079895 41.0588294,74.9505252 C28.358702,67.7789706 20.3481627,77.3602101 18.9185157,79.2784874 C18.787849,79.4543697 18.5370843,79.4867437 18.3655843,79.3514496 C7.60431961,70.8511134 10.7436824,56.1828151 10.8440843,55.7290966 C10.8460059,55.7208824 10.8469667,55.7141176 10.8484078,55.7059034 C11.293251,52.4216387 12.7253,49.0552311 13.5064176,47.4012605 C13.667349,47.0601261 13.3041725,46.7040126 12.9731824,46.8823109 C11.6862118,47.5761765 10.4040451,48.4459244 9.18769216,49.5379412 C1.6513,56.3036134 1.76323137,66.9995798 1.95250588,70.2389076 C1.96883922,70.522542 1.69165294,70.722584 1.42599608,70.6254622 C1.21990784,70.550084 0.965780392,70.4336345 0.680427451,70.2543697 C0.433986275,70.1002311 0.105878431,70.2577521 0.0828196078,70.5486345 C-0.386043137,76.4914286 1.26074118,82.5207143 1.8655549,84.4887605 C1.95586863,84.7835084 1.69309412,85.0642437 1.39669216,84.985 C1.19348627,84.9303992 0.952809804,84.8627521 0.687152941,84.7815756 C0.430143137,84.7032983 0.166888235,84.9038235 0.179378431,85.1734454 C0.463290196,91.2442857 2.65483922,95.2630042 3.74100588,96.902479 C3.94084902,97.2039916 3.66510392,97.5905462 3.31585882,97.4992227 C3.12081961,97.4480042 2.9377902,97.3929202 2.73794706,97.3218908 C2.44827059,97.2194538 2.15523137,97.4813445 2.22632941,97.7823739 C3.05932941,101.321282 6.27843725,104.35042 7.87478039,105.670987 C8.16493725,105.910651 7.98382941,106.386113 7.60912353,106.364853 C7.59999608,106.36437 7.59134902,106.363887 7.58222157,106.36292 C7.25363333,106.343592 7.0413,106.711786 7.23393725,106.979958 C8.63908431,108.935924 11.9220843,111.550966 14.8183686,112.647815 C23.2185059,115.954307 29.6072412,113.900252 30.4436039,113.603088 C30.5108588,113.578929 30.5781137,113.575546 30.6477706,113.590042 C31.9808588,113.86208 38.7303686,115.741702 45.5394471,114.675777 C70.0154275,110.86 76.6107314,92.8745798 77.3418882,90.6615546 C78.0826529,88.4543277 77.4821627,88.4258193 76.7601333,89.3564496 C75.7834961,90.6016387 74.1967608,91.3365756 72.9861725,91.7434244 C72.589849,91.8763025 72.2900843,91.3675 72.5994569,91.0848319 C78.5885059,85.6039706 81.9531725,76.802605 82.5474176,74.605042 C83.3996333,71.444958 81.8921627,72.7983824 81.4060059,73.3352101 C79.3590549,75.5844748 77.1723098,77.0413025 75.6903,77.8704622 C75.3131922,78.0816176 74.9235941,77.6037395 75.2046235,77.2732353 C80.625849,70.8965336 83.1378196,64.7073109 83.9501627,61.1940126 C84.8941333,57.1704622 83.2185255,59.092605 83.2185255,59.092605 C81.2503588,61.9303992 79.068898,63.697437 77.5124275,64.7102101 C77.1329176,64.957605 76.7111333,64.4603992 77.0118588,64.1207143 C87.8274078,51.8901261 89.8042216,37.8195378 90.1380941,36.0732773 C90.7962314,32.5580462 88.6498392,35.7311765 87.5718392,37.3464916 C85.1799667,40.9163235 82.1025745,43.7879412 80.0513,45.4955462 C79.6991725,45.7883613 79.220702,45.3360924 79.4882804,44.9640336 C85.0742804,37.2073319 90.7736529,27.255 94.7138294,14.9988025 C97.2762412,7.02756303 98.3451137,0.413613445 97.5313294,0.129012605 M28.3265157,108.643109 C26.9117608,109.212794 18.3987314,98.5458193 19.6578392,90.8403361 C19.6578392,90.8403361 24.596751,93.1466176 27.6429176,93.38 C27.6429176,93.38 29.0163588,99.6334874 34.4764961,104.168739 C34.4764961,104.168739 32.3012804,107.04084 28.3265157,108.643109 M37.987202,89.1646218 C36.3240843,89.6091597 32.6606137,89.7115966 31.897751,87.5493067 C31.8943882,87.5464076 35.7581824,81.2644118 40.5054176,86.4621218 C40.5054176,86.4621218 41.5358588,88.2016176 37.987202,89.1646218" id="Fill-9" fill="#C7212A"></path>
                            </g>
                        </g>
                    </g>
                </g>
            </g>
        </g>
    </g>
</svg>