<?xml version="1.0" encoding="UTF-8"?>
<svg width="68px" height="79px" viewBox="0 0 68 79" version="1.1" xmlns="http://www.w3.org/2000/svg" xmlns:xlink="http://www.w3.org/1999/xlink">
    <!-- Generator: Sketch 51.3 (57544) - http://www.bohemiancoding.com/sketch -->
    <title>footer-logo</title>
    <desc>Created with Sketch.</desc>
    <defs></defs>
    <g id="Page-1" stroke="none" stroke-width="1" fill="none" fill-rule="evenodd">
        <g id="footer-logo" transform="translate(-1.000000, -1.000000)" fill="#AD2031" fill-rule="nonzero">
            <path d="M11.9,10.2 L16.1,10.2 L14.2,17.7 C13.8,19.3 13.3,20.5 12.9,21.3 C12.4,22.1 11.7,22.8 10.7,23.4 C9.7,24 8.6,24.3 7.3,24.3 C5.9,24.3 4.9,24.1 4.3,23.8 C3.6,23.4 3.2,22.9 3,22.2 C2.8,21.5 2.8,20.6 3,19.5 L7.2,18.9 C7,19.5 7,20 7,20.3 C7,20.6 7.1,20.8 7.3,21 C7.4,21.1 7.6,21.2 7.9,21.2 C8.4,21.2 8.8,21 9.1,20.7 C9.4,20.3 9.7,19.7 9.9,18.9 L11.9,10.2 Z" id="Fill-3"></path>
            <path d="M21.3,16 C21.8,15.8 22.2,15.5 22.5,15.2 C22.8,14.9 23,14.7 23,14.4 C23.1,14.1 23,13.9 22.9,13.7 C22.8,13.5 22.5,13.4 22.2,13.4 C21.9,13.4 21.6,13.5 21.3,13.7 C21,13.9 20.9,14.1 20.8,14.4 C20.7,14.8 20.9,15.3 21.3,16 M19.4,18.9 C18.9,19.2 18.5,19.5 18.3,19.7 C18.1,19.9 18,20.2 17.9,20.4 C17.8,20.8 17.9,21.2 18.1,21.5 C18.4,21.8 18.8,22 19.3,22 C19.9,22 20.6,21.8 21.5,21.3 C20.9,20.7 20.2,19.9 19.4,18.9 M24.5,18.1 L26.9,18.7 C26.6,19.2 26.4,19.6 26.2,19.9 C26,20.2 25.7,20.5 25.4,20.9 L26.4,21.8 C26.5,21.9 26.7,22 26.9,22.1 L24.6,24.2 C24.3,24 24,23.8 23.8,23.6 C23.6,23.4 23.3,23.2 23,23 C22.3,23.4 21.7,23.7 21.1,23.9 C20.2,24.1 19.3,24.3 18.3,24.3 C16.7,24.3 15.6,24 15,23.3 C14.4,22.6 14.2,21.8 14.5,20.9 C14.7,20.2 15.1,19.6 15.7,18.9 C16.3,18.3 17.2,17.8 18.3,17.3 C18,16.8 17.8,16.3 17.8,15.9 C17.7,15.5 17.8,15.1 17.9,14.7 C18.1,13.8 18.6,13.1 19.4,12.6 C20.2,12 21.2,11.8 22.5,11.7 C23.8,11.7 24.7,11.9 25.2,12.5 C25.7,13 25.8,13.6 25.6,14.4 C25.5,14.8 25.3,15.2 25,15.6 C24.7,16 24.4,16.3 24.1,16.5 C23.8,16.7 23.2,17.1 22.4,17.6 C22.8,18.2 23.3,18.7 23.8,19.2 C24.1,18.8 24.3,18.4 24.5,18.1" id="Fill-5"></path>
            <polygon id="Fill-7" points="30.9 10 35.1 10 33.8 15.2 39.5 9.9 45.1 9.9 38.8 15.2 41.8 23.8 36.6 23.8 35.2 18.1 32.4 20.5 31.5 23.8 27.3 23.9"></polygon>
            <path d="M68,1 C67.3,0.7 64.9,8.4 56.9,18.2 C56.5,18.7 56.3,19 56.1,19.1 C45.8,33 30.9,41.5 29,42.3 C27,43.1 26.6,44.1 28.3,44.9 C40.6,50.1 40.3,61.3 38.2,67 C36.9,70.7 33.4,71.5 31.3,71.7 C28.8,71.9 29.2,70.6 29.2,70.6 C30.3,67.9 30.1,64.7 30,63.9 C30,63.8 30.1,63.7 30.2,63.6 C30.9,63.3 33.1,62.5 33.4,62 C34,61.2 34.2,54.8 29.2,52 C20.5,47.2 15,53.7 14,55 C13.9,55.1 13.7,55.1 13.6,55 C6.2,49.3 8.4,39.3 8.4,39 C8.4,39 8.4,39 8.4,39 C8.7,36.8 9.7,34.5 10.2,33.3 C10.3,33.1 10.1,32.8 9.8,32.9 C9,33.4 8.1,34 7.3,34.7 C2.1,39.3 2.2,46.6 2.3,48.8 C2.3,49 2.1,49.1 1.9,49.1 C1.8,49 1.6,49 1.4,48.8 C1.2,48.7 1,48.8 1,49 C0.7,53.1 1.8,57.2 2.2,58.5 C2.3,58.8 2.2,59 2,58.9 C1.9,58.9 1.7,58.8 1.5,58.8 C1.3,58.7 1.1,58.9 1.2,59.1 C1.4,63.2 2.9,66 3.6,67.1 C3.7,67.3 3.5,67.6 3.3,67.5 C3.2,67.5 3,67.4 2.9,67.4 C2.7,67.3 2.5,67.5 2.5,67.7 C3.1,70.1 5.3,72.2 6.4,73.1 C6.6,73.3 6.5,73.6 6.2,73.6 C6.2,73.6 6.2,73.6 6.2,73.6 C6,73.5 5.8,73.8 6,74 C7,75.3 9.2,77.1 11.2,77.9 C17,80.2 21.4,78.8 21.9,78.6 C21.9,78.6 22,78.6 22,78.6 C22.9,78.8 27.6,80.1 32.2,79.3 C49,76.7 53.5,64.4 54,62.9 C54.5,61.4 54.1,61.4 53.6,62 C52.9,62.8 51.8,63.4 51,63.6 C50.7,63.7 50.5,63.3 50.7,63.2 C54.8,59.5 57.1,53.4 57.5,51.9 C58.1,49.7 57.1,50.7 56.7,51 C55.3,52.5 53.8,53.5 52.8,54.1 C52.5,54.2 52.3,53.9 52.5,53.7 C56.2,49.3 57.9,45.1 58.5,42.7 C59.1,40 58,41.3 58,41.3 C56.6,43.2 55.1,44.4 54.1,45.1 C53.8,45.3 53.6,44.9 53.8,44.7 C61.2,36.3 62.6,26.7 62.8,25.6 C63.3,23.2 61.8,25.4 61,26.5 C59.4,28.9 57.2,30.9 55.8,32.1 C55.6,32.3 55.2,32 55.4,31.7 C59.2,26.4 63.2,19.6 65.9,11.2 C67.8,5.7 68.5,1.2 68,1 M20.5,75.1 C19.5,75.5 13.7,68.2 14.5,62.9 C14.5,62.9 17.9,64.5 20,64.6 C20,64.6 20.9,68.9 24.7,72 C24.7,72 23.2,74 20.5,75.1 M27.1,61.8 C26,62.1 23.4,62.2 22.9,60.7 C22.9,60.7 25.6,56.4 28.8,60 C28.8,60 29.5,61.1 27.1,61.8" id="Fill-9"></path>
        </g>
    </g>
</svg>