<?xml version="1.0" encoding="utf-8"?>
<!-- Generator: Adobe Illustrator 20.1.0, SVG Export Plug-In . SVG Version: 6.00 Build 0)  -->
<svg version="1.1" id="圖層_1" xmlns="http://www.w3.org/2000/svg" xmlns:xlink="http://www.w3.org/1999/xlink" x="0px" y="0px"
	 viewBox="0 0 68 79" style="enable-background:new 0 0 68 79;" xml:space="preserve">
<style type="text/css">
	.st0{fill:#AD2031;}
</style>
<title>Group 11</title>
<desc>Created with Sketch.</desc>
<g id="home">
	<g id="Group-11">
		<path id="Fill-3" class="st0" d="M10.9,9.2l4.2,0l-1.9,7.5c-0.4,1.6-0.9,2.8-1.3,3.6c-0.5,0.8-1.2,1.5-2.2,2.1
			c-1,0.6-2.1,0.9-3.4,0.9c-1.4,0-2.4-0.2-3-0.5c-0.7-0.4-1.1-0.9-1.3-1.6c-0.2-0.7-0.2-1.6,0-2.7l4.2-0.6c-0.2,0.6-0.2,1.1-0.2,1.4
			c0,0.3,0.1,0.5,0.3,0.7c0.1,0.1,0.3,0.2,0.6,0.2c0.5,0,0.9-0.2,1.2-0.5c0.3-0.4,0.6-1,0.8-1.8L10.9,9.2z"/>
		<path id="Fill-5" class="st0" d="M20.3,15c0.5-0.2,0.9-0.5,1.2-0.8c0.3-0.3,0.5-0.5,0.5-0.8c0.1-0.3,0-0.5-0.1-0.7
			c-0.1-0.2-0.4-0.3-0.7-0.3c-0.3,0-0.6,0.1-0.9,0.3c-0.3,0.2-0.4,0.4-0.5,0.7C19.7,13.8,19.9,14.3,20.3,15 M18.4,17.9
			c-0.5,0.3-0.9,0.6-1.1,0.8c-0.2,0.2-0.3,0.5-0.4,0.7c-0.1,0.4,0,0.8,0.2,1.1c0.3,0.3,0.7,0.5,1.2,0.5c0.6,0,1.3-0.2,2.2-0.7
			C19.9,19.7,19.2,18.9,18.4,17.9 M23.5,17.1l2.4,0.6c-0.3,0.5-0.5,0.9-0.7,1.2c-0.2,0.3-0.5,0.6-0.8,1l1,0.9
			c0.1,0.1,0.3,0.2,0.5,0.3l-2.3,2.1c-0.3-0.2-0.6-0.4-0.8-0.6s-0.5-0.4-0.8-0.6c-0.7,0.4-1.3,0.7-1.9,0.9c-0.9,0.2-1.8,0.4-2.8,0.4
			c-1.6,0-2.7-0.3-3.3-1c-0.6-0.7-0.8-1.5-0.5-2.4c0.2-0.7,0.6-1.3,1.2-2c0.6-0.6,1.5-1.1,2.6-1.6c-0.3-0.5-0.5-1-0.5-1.4
			c-0.1-0.4,0-0.8,0.1-1.2c0.2-0.9,0.7-1.6,1.5-2.1c0.8-0.6,1.8-0.8,3.1-0.9c1.3,0,2.2,0.2,2.7,0.8c0.5,0.5,0.6,1.1,0.4,1.9
			c-0.1,0.4-0.3,0.8-0.6,1.2c-0.3,0.4-0.6,0.7-0.9,0.9s-0.9,0.6-1.7,1.1c0.4,0.6,0.9,1.1,1.4,1.6C23.1,17.8,23.3,17.4,23.5,17.1"/>
		<polygon id="Fill-7" class="st0" points="29.9,9 34.1,9 32.8,14.2 38.5,8.9 44.1,8.9 37.8,14.2 40.8,22.8 35.6,22.8 34.2,17.1 
			31.4,19.5 30.5,22.8 26.3,22.9 		"/>
		<path id="Fill-9" class="st0" d="M67,0c-0.7-0.3-3.1,7.4-11.1,17.2c-0.4,0.5-0.6,0.8-0.8,0.9C44.8,32,29.9,40.5,28,41.3
			c-2,0.8-2.4,1.8-0.7,2.6c12.3,5.2,12,16.4,9.9,22.1c-1.3,3.7-4.8,4.5-6.9,4.7c-2.5,0.2-2.1-1.1-2.1-1.1c1.1-2.7,0.9-5.9,0.8-6.7
			c0-0.1,0.1-0.2,0.2-0.3c0.7-0.3,2.9-1.1,3.2-1.6c0.6-0.8,0.8-7.2-4.2-10C19.5,46.2,14,52.7,13,54c-0.1,0.1-0.3,0.1-0.4,0
			C5.2,48.3,7.4,38.3,7.4,38c0,0,0,0,0,0c0.3-2.2,1.3-4.5,1.8-5.7c0.1-0.2-0.1-0.5-0.4-0.4C8,32.4,7.1,33,6.3,33.7
			c-5.2,4.6-5.1,11.9-5,14.1c0,0.2-0.2,0.3-0.4,0.3c-0.1-0.1-0.3-0.1-0.5-0.3c-0.2-0.1-0.4,0-0.4,0.2c-0.3,4.1,0.8,8.2,1.2,9.5
			C1.3,57.8,1.2,58,1,57.9c-0.1,0-0.3-0.1-0.5-0.1c-0.2-0.1-0.4,0.1-0.3,0.3c0.2,4.1,1.7,6.9,2.4,8c0.1,0.2-0.1,0.5-0.3,0.4
			c-0.1,0-0.3-0.1-0.4-0.1c-0.2-0.1-0.4,0.1-0.4,0.3c0.6,2.4,2.8,4.5,3.9,5.4c0.2,0.2,0.1,0.5-0.2,0.5c0,0,0,0,0,0
			C5,72.5,4.8,72.8,5,73c1,1.3,3.2,3.1,5.2,3.9c5.8,2.3,10.2,0.9,10.7,0.7c0,0,0.1,0,0.1,0c0.9,0.2,5.6,1.5,10.2,0.7
			c16.8-2.6,21.3-14.9,21.8-16.4c0.5-1.5,0.1-1.5-0.4-0.9c-0.7,0.8-1.8,1.4-2.6,1.6c-0.3,0.1-0.5-0.3-0.3-0.4
			c4.1-3.7,6.4-9.8,6.8-11.3c0.6-2.2-0.4-1.2-0.8-0.9c-1.4,1.5-2.9,2.5-3.9,3.1c-0.3,0.1-0.5-0.2-0.3-0.4c3.7-4.4,5.4-8.6,6-11
			c0.6-2.7-0.5-1.4-0.5-1.4c-1.4,1.9-2.9,3.1-3.9,3.8c-0.3,0.2-0.5-0.2-0.3-0.4c7.4-8.4,8.8-18,9-19.1c0.5-2.4-1-0.2-1.8,0.9
			c-1.6,2.4-3.8,4.4-5.2,5.6c-0.2,0.2-0.6-0.1-0.4-0.4c3.8-5.3,7.8-12.1,10.5-20.5C66.8,4.7,67.5,0.2,67,0 M19.5,74.1
			c-1,0.4-6.8-6.9-6-12.2c0,0,3.4,1.6,5.5,1.7c0,0,0.9,4.3,4.7,7.4C23.7,71,22.2,73,19.5,74.1 M26.1,60.8c-1.1,0.3-3.7,0.4-4.2-1.1
			c0,0,2.7-4.3,5.9-0.7C27.8,59,28.5,60.1,26.1,60.8"/>
	</g>
</g>
</svg>
