<?xml version="1.0" encoding="utf-8"?>
<!-- Generator: Adobe Illustrator 20.1.0, SVG Export Plug-In . SVG Version: 6.00 Build 0)  -->
<svg version="1.1" id="圖層_1" xmlns="http://www.w3.org/2000/svg" xmlns:xlink="http://www.w3.org/1999/xlink" x="0px" y="0px"
	 viewBox="0 0 512 512" style="enable-background:new 0 0 512 512;" xml:space="preserve">
<style type="text/css">
	.st0{fill:#239AB7;}
</style>
<g>
	<path class="st0" d="M145.2,200.6c0,28.5,10.5,55.4,28.8,76.2c45.8,51.8,126.6,51.7,172.3,0c18-20.4,28.8-47.3,28.8-76.2
		c0-63.4-51.6-115-115-115C196.8,85.6,145.2,137.2,145.2,200.6z M212.8,187.8c0-3.1,2.2-5.7,5-7v14.4
		C214.7,194,212.8,191.1,212.8,187.8z M217.2,168.7v-8.4c0-23.4,19.1-42.5,42.5-42.5c23.5,0,42.5,19.1,42.5,42.5v8.2
		c-0.2,0-0.4-0.1-0.7-0.1c-0.1-2.6-1.6-4.2-3.7-6.6c-1.9-2.1-4.4-4.7-10-10.8c-3-3.3-8-3.9-11.7-1.4c-14.5,9.5-32.2,14.2-48.5,13.1
		c-4-0.3-7.8,2.1-9.2,5.8C218.4,168.5,217.2,168.7,217.2,168.7z M301.6,180.5c2.9,1.2,5,4,5,7.4c0,3.2-1.9,6.1-5,7.4V180.5z
		 M229.5,200.7v-26.2c17.4,0.6,35.8-4.4,51.2-13.9c5.1,5.5,7.9,8.4,9.2,9.9v30.2c-0.1,16.6-13.5,29.7-29.7,29.7
		C241.3,230.4,229.5,215.6,229.5,200.7z M260.3,242.1c5.1,0,10.5-1.1,14.3-2.5v4.1c0,4,2.3,7.6,5.7,9.5
		c-11.3,11.7-29.4,11.8-40.8,0.3c3.8-1.8,6.3-5.7,6.3-9.9v-3.7C250.5,241.3,255.6,242.1,260.3,242.1z M227.7,257.9l2.7,2.8
		c16.1,17.1,42.6,17.1,58.7,0l2.9-3.1c5,1.9,34.8,13.5,39.6,15.3c0,0,0,0,0,0c0.2,0.1,0.7,0.3,1.4,0.7
		c-19.3,19.2-45.4,30.2-72.9,30.2c-26.7,0-53-10.3-72.9-30.2c0.7-0.4,1.2-0.6,1.4-0.7c0,0,0,0,0.1,0
		C212.8,263.7,203.9,267.1,227.7,257.9z M341,264.9c-2.7-1.7-4.6-2.5-4.9-2.7c0,0-0.1,0-0.1,0c-18.8-7.3-41.7-16.1-49.7-19.3v-10
		c7.7-6.3,13.2-15.2,14.9-25.5c10.1-1.3,17.2-9.8,17.2-19.5c0-4.5-1.6-8.9-4.4-12.4v-15.1c0-29.9-24.3-54.2-54.2-54.2
		c-29.9,0-54.2,24.3-54.2,54.2v15.5c-2.8,3.4-4.4,7.6-4.4,12c0,9.8,7.2,18.2,17.3,19.5c1.7,10,7.1,19.6,15.7,26.2v9.4
		c-0.3,0.1-7,2.7-7,2.7l-42.7,16.6c0,0-0.1,0-0.1,0c-0.3,0.1-2.3,1-4.9,2.7c-53.8-67.5-5.4-167.6,80.8-167.6
		C346.5,97.3,394.8,197.4,341,264.9z"/>
	<path class="st0" d="M441.5,154.8h-25.8c0,0-0.1,0-0.1-0.1c-3.2-10.9-7.7-21.6-13.2-31.7c0,0,0-0.1,0-0.1l18.3-18.3
		c7.1-7.1,7.1-18.6,0-25.7l-39-39c-7.1-7.1-18.6-7.1-25.7,0l-18.3,18.3c0,0-0.1,0-0.1,0c-10.1-5.5-20.8-9.9-31.7-13.2
		c0,0-0.1,0-0.1-0.1V19.3c0-10-8.1-18.2-18.2-18.2h-14.4c-3.2,0-5.8,2.6-5.8,5.8c0,3.2,2.6,5.8,5.8,5.8h14.4c3.6,0,6.5,2.9,6.5,6.5
		v25.8c0,5.2,3.5,9.8,8.4,11.3c10.1,3,20,7.1,29.4,12.2c4.6,2.5,10.3,1.7,14-2l18.3-18.3c2.5-2.5,6.6-2.5,9.2,0l39,39
		c2.5,2.5,2.5,6.6,0,9.2l-18.3,18.3c-3.7,3.7-4.5,9.4-2,14c5.1,9.4,9.2,19.2,12.2,29.4c1.5,5,6.1,8.4,11.3,8.4h25.8
		c3.6,0,6.5,2.9,6.5,6.5v14c0,3.2,2.6,5.8,5.8,5.8s5.8-2.6,5.8-5.8v-14C459.7,163,451.5,154.8,441.5,154.8z"/>
	<path class="st0" d="M453.8,208.4c-3.2,0-5.8,2.6-5.8,5.8v14c0,3.6-2.9,6.5-6.5,6.5h-25.8c-5.2,0-9.8,3.5-11.3,8.4
		c-3,10.1-7.1,20-12.2,29.4c-2.5,4.6-1.7,10.3,2,14l18.3,18.3c2.5,2.5,2.5,6.6,0,9.2l-39,39c-2.5,2.5-6.6,2.5-9.2,0l-18.3-18.3
		c-3.7-3.7-9.4-4.5-14-2c-9.4,5.1-19.2,9.2-29.4,12.2c-5,1.5-8.4,6.1-8.4,11.3v25.8c0,3.6-2.9,6.5-6.5,6.5h-55.2
		c-3.6,0-6.5-2.9-6.5-6.5v-25.8c0-5.2-3.5-9.8-8.4-11.3c-10.1-3-20-7.1-29.4-12.2c-4.6-2.5-10.3-1.7-14,2l-18.3,18.3
		c-2.5,2.5-6.6,2.5-9.2,0l-39-39c-2.5-2.5-2.5-6.6,0-9.2l18.3-18.3c3.7-3.7,4.5-9.4,2-14c-5.1-9.4-9.2-19.2-12.2-29.4
		c-1.5-5-6.1-8.4-11.3-8.4H78.9c-3.6,0-6.5-2.9-6.5-6.5V173c0-3.6,2.9-6.5,6.5-6.5h25.8c5.2,0,9.8-3.5,11.3-8.4
		c3-10.1,7.1-20,12.2-29.4c2.5-4.6,1.7-10.3-2-14l-18.3-18.3c-2.5-2.5-2.5-6.6,0-9.2l39-39c2.5-2.5,6.6-2.5,9.2,0l18.3,18.3
		c3.7,3.7,9.4,4.5,14,2c9.4-5.1,19.2-9.2,29.4-12.2c5-1.5,8.4-6.1,8.4-11.3V19.3c0-3.6,2.9-6.5,6.5-6.5h13.5c3.2,0,5.8-2.6,5.8-5.8
		c0-3.2-2.6-5.8-5.8-5.8h-13.5c-10,0-18.2,8.1-18.2,18.2v25.8c0,0,0,0.1-0.1,0.1c-10.9,3.2-21.6,7.6-31.7,13.2c0,0-0.1,0-0.1,0
		L164.3,40c-7.1-7.1-18.6-7.1-25.7,0l-39,39c-7.1,7.1-7.1,18.6,0,25.7l18.3,18.3c0,0,0,0.1,0,0.1c-5.5,10.1-9.9,20.8-13.2,31.7
		c0,0,0,0.1-0.1,0.1H78.9c-10,0-18.2,8.1-18.2,18.2v55.2c0,10,8.1,18.2,18.2,18.2h25.8c0,0,0.1,0,0.1,0.1
		c3.2,10.9,7.6,21.6,13.2,31.7c0,0,0,0.1,0,0.1l-18.3,18.3c-7.1,7.1-7.1,18.6,0,25.7l39,39c7.1,7.1,18.6,7.1,25.7,0l18.3-18.3
		c0,0,0.1,0,0.1,0c10.1,5.5,20.8,9.9,31.7,13.2c0,0,0.1,0,0.1,0.1v25.8c0,10,8.1,18.2,18.2,18.2h55.2c10,0,18.2-8.1,18.2-18.2v-25.8
		c0,0,0-0.1,0.1-0.1c10.9-3.2,21.6-7.6,31.7-13.2c0,0,0.1,0,0.1,0l18.3,18.3c7.1,7.1,18.6,7.1,25.7,0l39-39c7.1-7.1,7.1-18.6,0-25.7
		l-18.3-18.3c0,0,0-0.1,0-0.1c5.5-10.1,9.9-20.7,13.2-31.7c0,0,0-0.1,0.1-0.1h25.8c10,0,18.2-8.1,18.2-18.2v-14
		C459.7,211,457.1,208.4,453.8,208.4z"/>
</g>
</svg>
