<?xml version="1.0" encoding="UTF-8"?>
<svg width="260px" height="157px" viewBox="0 0 260 157" version="1.1" xmlns="http://www.w3.org/2000/svg" xmlns:xlink="http://www.w3.org/1999/xlink">
    <!-- Generator: Sketch 51.3 (57544) - http://www.bohemiancoding.com/sketch -->
    <title>Group 23 Copy 2</title>
    <desc>Created with Sketch.</desc>
    <defs></defs>
    <g id="Name-Reaction" stroke="none" stroke-width="1" fill="none" fill-rule="evenodd">
        <g id="-Name-Reaction" transform="translate(-1113.000000, -1198.000000)" stroke="#C9C9C9" stroke-width="0.835">
            <g id="Group-23-Copy-2" transform="translate(1114.000000, 1199.000000)">
                <path d="M218.402692,92.1121228 C221.865769,90.1254553 221.865769,86.8745447 218.402692,84.8843359 L110.29197,22.8478968 C106.832455,20.8612292 104,22.4866845 104,26.4600196 L104,150.53998 C104,154.513316 106.832455,156.138771 110.29197,154.152103 L218.402692,92.1121228 Z" id="Stroke-1" fill="#D8D8D8"></path>
                <path d="M78.2232529,47.971624 C80.592249,46.612497 80.592249,44.387503 78.2232529,43.028376 L4.30272488,0.579608151 C1.93729653,-0.779518924 -1.13686838e-13,0.334752359 -1.13686838e-13,3.05300651 L-1.13686838e-13,87.9469935 C-1.13686838e-13,90.6652476 1.93729653,91.7795189 4.30272488,90.4203918 L78.2232529,47.971624 Z" id="Stroke-3"></path>
                <path d="M95.2456209,134.559365 C96.2514597,133.97529 96.2514597,133.023072 95.2456209,132.438997 L63.8316855,114.247727 C62.8223174,113.667192 62,114.141532 62,115.309681 L62,151.692221 C62,152.85683 62.8223174,153.334709 63.8316855,152.750635 L95.2456209,134.559365 Z" id="Stroke-9"></path>
                <path d="M257.245543,20.5593649 C258.251486,19.9752902 258.251486,19.0230716 257.245543,18.438997 L225.828346,0.247727181 C224.822403,-0.332807601 224,0.141531794 224,1.30968105 L224,37.6922206 C224,38.85683 224.822403,39.3347093 225.828346,38.7506346 L257.245543,20.5593649 Z" id="Stroke-15" fill="#D8D8D8"></path>
                <path d="M192.802277,32.6830131 C194.399241,31.7572672 194.399241,30.2427328 192.802277,29.3169869 L142.904214,0.395409201 C141.307249,-0.530336664 140,0.225157088 140,2.08019574 L140,59.9198043 C140,61.7748429 141.307249,62.5303367 142.904214,61.6045908 L192.802277,32.6830131 Z" id="Stroke-19"></path>
            </g>
        </g>
    </g>
</svg>