<?xml version="1.0" encoding="utf-8"?>
<!-- Generator: Adobe Illustrator 20.1.0, SVG Export Plug-In . SVG Version: 6.00 Build 0)  -->
<svg version="1.1" id="圖層_1" xmlns="http://www.w3.org/2000/svg" xmlns:xlink="http://www.w3.org/1999/xlink" x="0px" y="0px"
	 viewBox="0 0 512 512" style="enable-background:new 0 0 512 512;" xml:space="preserve">
<style type="text/css">
	.st0{fill:#239AB7;}
</style>
<path class="st0" d="M160.2,340.8c5.1,5.3,8.8,9.1,8.8,17.6l0,18c0,12,6.6,19.9,17.5,21.2c0.5,0.1-0.9,0,25,0c3.2,0,5.8-2.6,5.8-5.8
	c0-3.2-2.6-5.8-5.8-5.8h-23.9c-4.8-0.6-6.9-3.6-6.9-9.6c0,0,0-18,0-18c0-13.2-6.4-19.8-12-25.7c-5.7-5.9-10.6-11-10.6-23.7
	c0.1-81.9,0-56.3,0-91.5c0-5.5,4.5-10,10-10c5.5,0,10,4.5,10,10v31.1c0,3.2,2.6,5.8,5.8,5.8c3.2,0,5.8-2.6,5.8-5.8
	c0-3.8,0-30.6,0-34.3c0-5.5,4.5-10,10-10c5.5,0,10,4.5,10,10v34.3c0,3.2,2.6,5.8,5.8,5.8c3.2,0,5.8-2.6,5.8-5.8c0-7.8,0-30.6,0-38.6
	c0-5.5,4.5-10,10-10c5.5,0,10,4.5,10,10v38.6c0,3.2,2.8,5.8,6,5.8c3.2,0,5.8-2.6,5.8-5.8c0-82.8,0-52.9,0-135.2
	c0-5.5,4.5-10,10.1-10h0c5.5,0,10,4.5,10,10.1V261c0,3.6,2.3,6.9,5.8,8c3.5,1.2,7.3,0,9.5-2.9l25.2-33.1c0,0,0.1-0.1,0.1-0.1
	c6-8.4,12.6-5.4,14.5-4.3c3.9,2.3,6.9,7.3,4.3,13c0,0,0,0.1,0,0.1c-32.3,74-32.7,77.4-41.5,86.1c0,0-0.1,0.1-0.1,0.1
	c-13.7,13.5-18.5,15.5-17.9,42c0.1,5.2,0.3,11.6-2.3,14.2c-1.3,1.3-3.5,1.9-6.7,1.9h-25.5c-3.2,0-5.8,2.6-5.8,5.8
	c0,3.2,2.6,5.8,5.8,5.8H264c6.4,0,11.4-1.8,14.9-5.4c6-6.1,5.8-15.2,5.6-22.6c-0.2-6.7-0.2-18.9,4.6-23.7c0,0,9.5-9.5,10-9.9
	c0.1-0.1,0.1-0.1,0.2-0.2c5.7-5.6,11-14.4,12.6-18.1l31.2-71.4c5.4-11.7-0.5-22.8-9-27.8c-8.5-5-21-4.6-29.7,7.5l-19.6,25.8v-69.1
	c28.9-17,75.4-51.8,84.9-103.9c0.6-3.1-1.5-6.2-4.7-6.7c-3.1-0.6-6.2,1.5-6.7,4.7c-8.1,44.3-46.4,75.5-73.5,92.4v-55.8
	c0-11.9-9.7-21.6-21.6-21.6c0,0,0,0,0,0c-11.9,0-21.6,9.7-21.6,21.6l0,57.1C213,153,164.4,115.1,164.4,59.7
	c0-46.9,62.7-63.5,85.9-22.6c3.5,6.3,14.7,10.1,22.7,1.2c0.3-0.3,0.5-0.6,0.7-1c22.1-38.7,78.9-26.2,85.4,14.5
	c0.5,3.2,3.5,5.3,6.6,4.8c3.2-0.5,5.3-3.5,4.8-6.6c-8.2-51-78.7-66.7-106.6-19c-0.5,0.5-1.2,1-2,1c-0.6,0-1.3-0.4-1.9-1.1
	C230.8-19.8,152.8,0.9,152.8,59.7c0,54.7,41.6,97.3,88.6,124.3v7.1c-3.1-1.7-6.6-2.6-10.3-2.6c-7.4,0-13.9,3.7-17.8,9.3
	c-3.8-3.2-8.6-5.1-13.9-5.1c-7.1,0-13.3,3.4-17.3,8.7c-3.8-3.4-8.8-5.5-14.3-5.5c-11.9,0-21.6,9.7-21.6,21.6c0,3.5,0,25.8,0,91.5
	C146.3,326.4,154,334.4,160.2,340.8z"/>
</svg>
