<?xml version="1.0" encoding="utf-8"?>
<!-- Generator: Adobe Illustrator 20.1.0, SVG Export Plug-In . SVG Version: 6.00 Build 0)  -->
<svg version="1.1" id="圖層_1" xmlns="http://www.w3.org/2000/svg" xmlns:xlink="http://www.w3.org/1999/xlink" x="0px" y="0px"
	 viewBox="0 0 512 512" style="enable-background:new 0 0 512 512;" xml:space="preserve">
<style type="text/css">
	.st0{fill:#239AB7;}
</style>
<path class="st0" d="M78.2,36.1c-7.6,0-13.8,6.2-13.8,13.8v256.1c0,7.6,6.2,13.8,13.8,13.8h363.6c7.6,0,13.8-6.2,13.8-13.8
	c0-9.3,0-245.3,0-256.1c0-7.6-6.2-13.8-13.8-13.8C440.3,36.1,85.7,36.1,78.2,36.1z M440.5,74.8c-3.3,0-310.6,0-313.8,0V51.1h313.8
	V74.8z M180,228.1H79.4v-23.3H180V228.1z M79.4,243.1H180v23.3H79.4V243.1z M180,189.7H79.4V89.8H180V189.7z M79.4,51.1h32.3v23.7
	H79.4V51.1z M79.4,304.7v-23.3H180v23.3H79.4z M195,304.7c0-9.2,0-205,0-214.9h245.5v214.9H195z"/>
<path class="st0" d="M96.5,141.1c0,18.3,14.9,33.1,33.1,33.1c18.3,0,33.2-14.9,33.2-33.1s-14.9-33.1-33.2-33.1
	C111.4,107.9,96.5,122.8,96.5,141.1z M129.7,122.9c10,0,18.1,8.1,18.1,18.1s-8.1,18.1-18.1,18.1c-10,0-18.1-8.1-18.1-18.1
	S119.7,122.9,129.7,122.9z"/>
<path class="st0" d="M405.3,106.3H268.2c-9.8,0-17.7,7.9-17.7,17.7v31.4c0,9.8,7.9,17.7,17.7,17.7h92l18.4,22.5
	c5.8,7.1,17.4,3,17.4-6.2v-16.3h9.4c9.8,0,17.7-7.9,17.7-17.7V124C423,114.3,415.1,106.3,405.3,106.3z M408,155.4
	c0,1.5-1.2,2.7-2.7,2.7h-13.8c-5.8,0-10.5,4.7-10.5,10.5v6.3l-9.3-11.4c-2.8-3.4-6.9-5.3-11.3-5.3h-92.2c-1.5,0-2.7-1.2-2.7-2.7V124
	c0-1.5,1.2-2.7,2.7-2.7h137.1c1.5,0,2.7,1.2,2.7,2.7V155.4z"/>
<path class="st0" d="M366.4,201.5H229.2c-9.8,0-17.7,7.9-17.7,17.7v31.4c0,9.8,7.9,17.7,17.7,17.7h9.4v16.3c0,4.1,2.6,7.9,6.5,9.2
	c3.9,1.4,8.3,0.2,10.9-3l18.4-22.5h92c9.8,0,17.7-7.9,17.7-17.7v-31.4C384.1,209.4,376.1,201.5,366.4,201.5z M369.1,250.6
	c0,1.5-1.2,2.7-2.7,2.7h-92.2c-4.4,0-8.5,1.9-11.3,5.3l-9.3,11.4v-6.3c0-5.8-4.7-10.5-10.5-10.5h-13.8c-1.5,0-2.7-1.2-2.7-2.7v-31.4
	c0-1.5,1.2-2.7,2.7-2.7h137.1c1.5,0,2.7,1.2,2.7,2.7V250.6z"/>
<path class="st0" d="M498.7,341.2H479c7.9-8.5,12.8-19.9,12.8-32.4V218c0-4.1-3.4-7.5-7.5-7.5s-7.5,3.4-7.5,7.5v90.8
	c0,17.8-14.5,32.4-32.4,32.4c-10.3,0-340.1,0-369,0c-17.8,0-32.4-14.5-32.4-32.4V47.4C43.1,29.5,57.6,15,75.5,15h369
	c17.8,0,32.4,14.5,32.4,32.4V183c0,4.1,3.4,7.5,7.5,7.5s7.5-3.4,7.5-7.5V47.4c0-26.1-21.2-47.4-47.4-47.4h-369
	C49.4,0,28.1,21.2,28.1,47.4v261.4c0,12.5,4.9,23.9,12.8,32.4H13.3c-7.3,0-13.3,6-13.3,13.3v12.1c0,19,15.5,34.5,34.5,34.5h204
	c4.1,0,7.5-3.4,7.5-7.5c0-4.1-3.4-7.5-7.5-7.5h-204c-10.8,0-19.5-8.8-19.5-19.5v-10.4h165v3c0,10.8,8.7,19.5,19.5,19.5h121
	c10.8,0,19.5-8.8,19.5-19.5v-3H497v10.4c0,10.8-8.8,19.5-19.5,19.5h-204c-4.1,0-7.5,3.4-7.5,7.5c0,4.1,3.4,7.5,7.5,7.5h204
	c19,0,34.5-15.5,34.5-34.5v-12.1C512,347.1,506,341.2,498.7,341.2z M324.9,359.1c0,2.4-2.1,4.5-4.5,4.5h-121c-2.4,0-4.5-2.1-4.5-4.5
	v-3h130V359.1z"/>
</svg>
