<?xml version="1.0" encoding="UTF-8"?>
<svg width="1440px" height="309px" viewBox="0 0 1440 309" version="1.1" xmlns="http://www.w3.org/2000/svg" xmlns:xlink="http://www.w3.org/1999/xlink">
    <!-- Generator: Sketch 51.3 (57544) - http://www.bohemiancoding.com/sketch -->
    <title>Group 2</title>
    <desc>Created with Sketch.</desc>
    <defs>
        <polygon id="path-1" points="0 0.0316551724 31.7205378 0.0316551724 31.7205378 35.8002414 0 35.8002414"></polygon>
    </defs>
    <g id="Name-Reaction" stroke="none" stroke-width="1" fill="none" fill-rule="evenodd">
        <g id="-Name-Reaction" transform="translate(0.000000, -143.000000)">
            <g id="Group-2" transform="translate(-201.000000, 143.000000)">
                <polygon id="Rectangle" fill="#00B2D0" points="0 0 1499.1875 0 1920 0 1920 285 0 285"></polygon>
                <g id="Group" transform="translate(1396.000000, 40.000000)">
                    <g id="Group-5" transform="translate(0.000000, 167.000000)">
                        <path d="M63.5574434,66.0090537 C65.4808522,64.9031671 65.4808522,63.0947172 63.5574434,61.9888306 L3.49829509,27.4721581 C1.57488627,26.3662715 0,27.2704964 0,29.4801012 L0,98.5177831 C0,100.729556 1.57488627,101.633781 3.49829509,100.527895 L63.5574434,66.0090537 Z" id="Stroke-1" stroke="#FFFFFF" stroke-width="0.986"></path>
                        <path d="M79.4697853,41.64536 C81.5100716,40.465248 81.5100716,38.5351382 79.4697853,37.3550262 L15.713537,0.503544382 C13.6689326,-0.676567587 12,0.289568036 12,2.64979197 L12,76.3505942 C12,78.7086568 13.6689326,79.6769538 15.713537,78.4968418 L79.4697853,41.64536 Z" id="Fill-3" fill="#FFFFFF"></path>
                    </g>
                    <g id="Group-6" transform="translate(139.000000, 0.000000)">
                        <path d="M49.1130559,23.7222032 C50.295648,23.0493684 50.295648,21.9506316 49.1130559,21.2777968 L12.1521565,0.287391726 C10.9684129,-0.385443017 10,0.163925418 10,1.5095949 L10,43.4904051 C10,44.8360746 10.9684129,45.385443 12.1521565,44.7126083 L49.1130559,23.7222032 Z" id="Stroke-1" stroke="#FFFFFF" stroke-width="1.148"></path>
                        <g id="Group-5" transform="translate(0.000000, 5.000000)">
                            <mask id="mask-2" fill="white">
                                <use xlink:href="#path-1"></use>
                            </mask>
                            <g id="Clip-4"></g>
                            <path d="M31.0177143,18.886831 C31.9559664,18.3520034 31.9559664,17.4780724 31.0177143,16.9432448 L1.7080112,0.257762069 C0.768605042,-0.277065517 0,0.161037931 0,1.22955517 L0,34.6016586 C0,35.6701759 0.768605042,36.1071414 1.7080112,35.5723138 L31.0177143,18.886831 Z" id="Fill-3" fill="#FFFFFF" mask="url(#mask-2)"></path>
                        </g>
                    </g>
                </g>
            </g>
        </g>
    </g>
</svg>