<?xml version="1.0" encoding="UTF-8"?>
<svg width="25px" height="23px" viewBox="0 0 25 23" version="1.1" xmlns="http://www.w3.org/2000/svg" xmlns:xlink="http://www.w3.org/1999/xlink">
    <!-- Generator: Sketch 51.3 (57544) - http://www.bohemiancoding.com/sketch -->
    <title>edit</title>
    <desc>Created with Sketch.</desc>
    <defs></defs>
    <g id="login" stroke="none" stroke-width="1" fill="none" fill-rule="evenodd">
        <g id="6.3-地址管理" transform="translate(-1030.000000, -367.000000)" fill="#000000" fill-rule="nonzero">
            <g id="edit" transform="translate(1030.000000, 367.000000)">
                <path d="M24.3958921,1.57114959 L23.2329843,0.537145158 C22.427507,-0.179048386 21.1186065,-0.179048386 20.3181635,0.537145158 L1.85259766,16.9514059 L0,22.2333333 L5.94039468,20.5860882 L24.3958921,4.16735118 C24.783528,3.82268304 25,3.36163345 25,2.86925039 C25,2.38134353 24.783528,1.92029394 24.3958921,1.57114959 Z M20.0211438,1.83076975 L21.1890858,2.86925039 L3.96697543,18.1868398 L2.79903343,17.1483592 L20.0211438,1.83076975 Z M1.2585582,21.1187571 L2.40636327,17.8376955 L4.94361659,20.0937051 L1.2585582,21.1187571 Z M5.71385421,19.7400846 L4.5459122,18.7016039 L21.7730568,3.38849071 L22.9409988,4.42697134 L5.71385421,19.7400846 Z M23.8169553,3.65258707 L23.5249698,3.91220723 L20.6051148,1.31600564 L20.8971003,1.05638548 C21.3803866,0.626669351 22.1657269,0.626669351 22.6490133,1.05638548 L23.8169553,2.09486612 C24.04853,2.30077176 24.1794201,2.57829676 24.1794201,2.8737266 C24.1794201,3.16915643 24.04853,3.44220522 23.8169553,3.65258707 Z" id="Shape"></path>
                <rect id="Rectangle-path" x="5.17241379" y="22.2333333" width="19.8275862" height="1"></rect>
            </g>
        </g>
    </g>
</svg>