<?xml version="1.0" encoding="utf-8"?>
<!-- Generator: Adobe Illustrator 20.1.0, SVG Export Plug-In . SVG Version: 6.00 Build 0)  -->
<svg version="1.1" id="圖層_1" xmlns="http://www.w3.org/2000/svg" xmlns:xlink="http://www.w3.org/1999/xlink" x="0px" y="0px"
	 viewBox="0 0 68 79" style="enable-background:new 0 0 68 79;" xml:space="preserve">
<style type="text/css">
	.st0{fill:#AD2031;}
	.st1{font-family:'ArialMT';}
	.st2{font-size:4.5481px;}
	.st3{font-family:'Arial-Black';}
	.st4{font-size:16.2676px;}
	.st5{font-size:14.1239px;}
</style>
<path class="st0" d="M66.4,7c-5.7,10.5-9.6,15-10.2,15.7c-9,12-21.8,19.3-23.5,20c-1.7,0.7-2,1.6-0.6,2.2C42.8,49.3,42.5,59,40.7,64
	c-1.1,3.2-4.1,3.9-6,4.1c-2.2,0.2-1.8-1-1.8-1c1.1-2.7,0.7-5.9,0.7-5.9s2.6-1,3-1.4c0.5-0.7,0.7-6.2-3.6-8.6
	c-8.3-4.7-13.3,2.7-13.3,2.7C12.9,48.8,15,39.8,15,39.8c0.4-2.7,1.9-5.5,1.9-5.5s-1.7,0.9-2.4,1.4c-5.6,4.4-4.8,13-4.8,13
	s-0.5,0-1.1-0.5c-0.5,4.4,1.1,9,1.1,9S9.3,57,8.7,56.8c0.1,5,2.5,7.7,2.5,7.7c-0.6-0.1-0.8-0.2-1.3-0.4c0.4,3,4,5.5,4,5.5
	s-0.7,0-1.2-0.1c0.6,1.2,2.8,3,4.8,3.8c5.4,2.1,9.3,0.5,9.3,0.5c0.6,0.1,4.7,1.3,8.9,0.7C50.1,72.3,54,61.7,54.5,60.4
	c0.4-1.3,0.1-1.3-0.3-0.8c-1,1.3-3.2,1.7-3.2,1.7c4-3.1,6.3-9,6.7-10.4c0.5-1.9-0.4-1.1-0.7-0.7c-2.1,2.3-4.5,3.2-4.5,3.2
	c3.8-4.1,5.4-8.1,6-10.4c0.6-2.4-0.4-1.2-0.4-1.2c-2.1,3-4.6,4-4.6,4c7.3-7.4,8.5-16.5,8.7-17.6c0.4-2.1-0.9-0.2-1.5,0.8
	c-2.3,3.5-5.8,5.8-5.8,5.8c5.2-6.8,8.5-14.5,10-19C66.8,9.2,67.1,5.8,66.4,7 M25.4,71c-0.8,0.3-5.9-6-5.1-10.5c0,0,2.9,1.4,4.7,1.5
	c0,0,0.8,3.7,4.1,6.4C29,68.3,27.7,70,25.4,71 M31.1,59.5c-1,0.3-3.2,0.3-3.6-1c0,0,2.3-3.7,5.1-0.6C32.6,57.9,33.2,58.9,31.1,59.5
	 M43.6,69.9l-4.7,1.3C50.4,57.4,39.2,47,39.2,47C52.1,57.8,43.6,69.9,43.6,69.9 M52,61.9c0,0-1.1,3.5-5.1,6.5l-0.3-2.7
	C46.7,65.7,49.1,64.8,52,61.9 M54.7,53.5c0,0-2,5-6.3,8l-0.6-3.1C50.6,57,51.3,56.4,54.7,53.5 M55.8,45.1c0,0-1.6,5.1-6.7,8.7
	c0,0-0.9-2.6-1.3-3C47.8,50.8,52.7,49,55.8,45.1 M58.5,33.6c-0.9,2.2-3.3,8.1-10.1,12.5c0,0-1.7-2.5-1.9-2.5
	C46.6,43.6,53.3,40.8,58.5,33.6 M50.9,35.8c-4.5,4.8-9.9,8.5-11.6,9.3c0,0-2.6-1.5-3.4-2.2c0,0,16.2-7.5,25-24.1
	C62.1,16.7,58.4,27.6,50.9,35.8"/>
<text transform="matrix(0.9999 1.468228e-02 -1.494123e-02 1.0154 36.3206 17.8377)" class="st0 st1 st2">®</text>
<text transform="matrix(0.966 -8.260324e-03 -0.2544 0.9847 0.1895 26.3803)" class="st0 st3 st4">J</text>
<text transform="matrix(0.966 -8.246719e-03 -0.2544 0.9847 9.5015 26.3888)" class="st0 st3 st5">&amp;</text>
<text transform="matrix(0.966 -8.260324e-03 -0.2544 0.9847 20.6077 26.2057)" class="st0 st3 st4">K</text>
</svg>
