<?xml version="1.0" encoding="UTF-8"?>
<svg width="300px" height="182px" viewBox="0 0 300 182" version="1.1" xmlns="http://www.w3.org/2000/svg" xmlns:xlink="http://www.w3.org/1999/xlink">
    <!-- Generator: Sketch 51.3 (57544) - http://www.bohemiancoding.com/sketch -->
    <title>Group 23 Copy</title>
    <desc>Created with Sketch.</desc>
    <defs></defs>
    <g id="Name-Reaction" stroke="none" stroke-width="1" fill="none" fill-rule="evenodd">
        <g id="-Name-Reaction" transform="translate(-878.000000, -1275.000000)" stroke="#C9C9C9" stroke-width="0.835">
            <g id="Group-23-Copy" transform="translate(879.000000, 1276.000000)">
                <path d="M258.402692,92.1121228 C261.865769,90.1254553 261.865769,86.8745447 258.402692,84.8843359 L150.29197,22.8478968 C146.832455,20.8612292 144,22.4866845 144,26.4600196 L144,150.53998 C144,154.513316 146.832455,156.138771 150.29197,154.152103 L258.402692,92.1121228 Z" id="Stroke-1" fill="#D8D8D8"></path>
                <path d="M118.223253,47.971624 C120.592249,46.612497 120.592249,44.387503 118.223253,43.028376 L44.3027249,0.579608151 C41.9372965,-0.779518924 40,0.334752359 40,3.05300651 L40,87.9469935 C40,90.6652476 41.9372965,91.7795189 44.3027249,90.4203918 L118.223253,47.971624 Z" id="Stroke-3"></path>
                <path d="M65.5112689,143.590714 C67.4962437,142.441716 67.4962437,140.557646 65.5112689,139.408648 L3.60065189,103.48999 C1.61922807,102.340992 0,103.283027 0,105.581022 L0,177.41834 C0,179.719903 1.61922807,180.65837 3.60065189,179.509373 L65.5112689,143.590714 Z" id="Stroke-5" fill="#D8D8D8"></path>
                <path d="M135.245621,134.559365 C136.25146,133.97529 136.25146,133.023072 135.245621,132.438997 L103.831685,114.247727 C102.822317,113.667192 102,114.141532 102,115.309681 L102,151.692221 C102,152.85683 102.822317,153.334709 103.831685,152.750635 L135.245621,134.559365 Z" id="Stroke-9"></path>
                <path d="M19.5812995,37.0699806 C20.1395668,36.7567678 20.1395668,36.2417069 19.5812995,35.9284941 L2.01928819,26.1318952 C1.45741908,25.8221626 1,26.0762129 1,26.7026384 L1,46.2958363 C1,46.9222618 1.45741908,47.1797923 2.01928819,46.8665795 L19.5812995,37.0699806 Z" id="Stroke-13" fill="#D8D8D8"></path>
                <path d="M297.245543,20.5593649 C298.251486,19.9752902 298.251486,19.0230716 297.245543,18.438997 L265.828346,0.247727181 C264.822403,-0.332807601 264,0.141531794 264,1.30968105 L264,37.6922206 C264,38.85683 264.822403,39.3347093 265.828346,38.7506346 L297.245543,20.5593649 Z" id="Stroke-15" fill="#D8D8D8"></path>
                <path d="M232.802277,32.6830131 C234.399241,31.7572672 234.399241,30.2427328 232.802277,29.3169869 L182.904214,0.395409201 C181.307249,-0.530336664 180,0.225157088 180,2.08019574 L180,59.9198043 C180,61.7748429 181.307249,62.5303367 182.904214,61.6045908 L232.802277,32.6830131 Z" id="Stroke-19"></path>
            </g>
        </g>
    </g>
</svg>