<?xml version="1.0" encoding="UTF-8"?>
<svg width="205px" height="55px" viewBox="0 0 205 55" version="1.1" xmlns="http://www.w3.org/2000/svg" xmlns:xlink="http://www.w3.org/1999/xlink">
    <!-- Generator: Sketch 51.3 (57544) - http://www.bohemiancoding.com/sketch -->
    <title>Group 20</title>
    <desc>Created with Sketch.</desc>
    <defs>
        <polygon id="path-1" points="3.69787864e-05 0.0005 204.7729 0.0005 204.7729 54.4954871 3.69787864e-05 54.4954871"></polygon>
    </defs>
    <g id="home" stroke="none" stroke-width="1" fill="none" fill-rule="evenodd">
        <g id="Group-20">
            <mask id="mask-2" fill="white">
                <use xlink:href="#path-1"></use>
            </mask>
            <g id="Clip-2"></g>
            <path d="M84.543,25.9435 L92.937,25.9435 L92.937,23.5305 L84.543,23.5305 L84.543,25.9435 Z M84.543,21.6005 L92.937,21.6005 L92.937,19.2585 L84.543,19.2585 L84.543,21.6005 Z M89.879,15.2535 C89.69,15.9685 89.481,16.6485 89.272,17.2915 L95.348,17.2915 L95.348,28.9825 L92.937,28.9825 L92.937,27.9095 L84.543,27.9095 L84.543,28.9825 L82.246,28.9825 L82.246,17.2915 L86.879,17.2915 C87.012,16.6485 87.126,15.9505 87.221,15.2535 L80.347,15.2535 L80.347,13.1795 L97.039,13.1795 L97.039,15.2535 L89.879,15.2535 Z" id="Fill-1" fill="#AD2031" mask="url(#mask-2)"></path>
            <path d="M111.6265,24.4894 C112.2725,23.6134 113.1275,22.1654 113.5825,21.0744 L115.5385,22.1294 C114.8165,23.3094 113.9815,24.5784 113.3165,25.4544 L111.6265,24.4894 Z M115.0075,20.1094 L100.9175,20.1094 L100.9175,18.2324 L112.8425,18.2324 L112.8425,17.3924 L101.7725,17.3924 L101.7725,15.9264 L112.8425,15.9264 L112.8425,15.0684 L100.9175,15.0684 L100.9175,13.1744 L115.0075,13.1744 L115.0075,20.1094 Z M104.3735,21.8434 C103.9365,23.1484 103.2725,24.5784 102.3035,25.5264 L100.4045,24.4714 C101.3155,23.6494 102.0375,22.3624 102.4365,21.1464 L104.3735,21.8434 Z M109.4425,20.4674 C109.3675,21.1284 109.2915,21.7544 109.1775,22.3624 C110.2595,25.3114 112.6145,26.9204 117.1525,27.3494 C116.6965,27.8144 116.1075,28.6904 115.8615,29.2984 C112.0255,28.7074 109.8045,27.3494 108.3605,24.9534 C107.2785,27.0814 105.1135,28.6004 100.4425,29.4944 C100.2335,28.9404 99.7025,28.0824 99.2465,27.6534 C106.1205,26.5274 106.6895,24.1494 107.0505,20.4674 L109.4425,20.4674 Z" id="Fill-3" fill="#AD2031" mask="url(#mask-2)"></path>
            <path d="M126.8667,22.5768 C126.6577,23.0238 126.4487,23.4708 126.2597,23.8458 C126.6767,24.0428 127.1137,24.2388 127.5317,24.4358 C127.9867,23.8818 128.3477,23.2738 128.6517,22.5768 L126.8667,22.5768 Z M129.5067,27.4928 C129.0887,27.1888 128.5377,26.8848 127.9687,26.5448 C126.9617,27.4208 125.7647,28.0998 124.4177,28.5828 C124.2267,28.1188 123.7337,27.4568 123.3727,27.0988 C124.4357,26.7948 125.4237,26.2948 126.2597,25.6508 C125.4237,25.2398 124.5687,24.8828 123.7907,24.5788 C124.1327,24.0068 124.4927,23.3268 124.8347,22.5768 L123.8097,22.5768 L123.8097,21.0038 L125.5377,21.0038 C125.7267,20.5208 125.9177,20.0558 126.0687,19.5918 L123.9997,19.5918 L123.9997,17.9648 L130.4557,17.9648 L130.4557,19.5918 L128.0247,19.5918 C127.8727,20.0558 127.7027,20.5208 127.5317,21.0038 L129.4497,21.0038 L129.7717,20.9498 L130.9497,21.3258 C130.5687,22.8988 129.9617,24.1858 129.1447,25.2578 C129.7337,25.5618 130.2467,25.8658 130.6647,26.1338 L129.5067,27.4928 Z M137.0067,18.5728 C136.4367,21.3258 135.5827,23.6848 134.3097,25.6338 C134.6517,26.6698 135.0507,27.2958 135.4687,27.2958 C135.8097,27.2958 135.9807,26.4018 136.0387,24.2928 C136.5127,24.7578 137.2347,25.2038 137.7857,25.4368 C137.4807,28.5468 136.8357,29.3508 135.2217,29.3508 C134.2157,29.3508 133.4557,28.6548 132.8477,27.5108 C132.1647,28.2438 131.4047,28.8688 130.5507,29.4228 C130.2467,29.0298 129.4497,28.2788 128.9937,27.9388 C130.1897,27.2598 131.1957,26.3838 132.0127,25.3478 C131.4047,23.1308 131.0827,20.1628 130.9297,16.9988 L123.4107,16.9988 L123.4107,20.2528 C123.4107,22.8988 123.1267,26.8308 121.4357,29.2628 C121.0947,28.9048 120.2207,28.2248 119.7467,28.0108 C121.1887,25.7758 121.3217,22.5948 121.3217,20.2528 L121.3217,15.0688 L130.8537,15.0688 C130.8357,14.2638 130.8167,13.4598 130.8167,12.6558 L133.0377,12.6558 C133.0187,13.4778 133.0187,14.2638 133.0377,15.0688 L135.4687,15.0688 C134.8987,14.6218 134.0637,14.1028 133.3987,13.7278 L134.6337,12.5128 C135.4877,12.9238 136.5697,13.5848 137.1397,14.0678 L136.1337,15.0688 L137.4247,15.0688 L137.4247,16.9988 L133.0957,16.9988 C133.1897,19.0728 133.3807,21.0038 133.6457,22.6298 C134.2157,21.3428 134.6337,19.8768 134.9177,18.2858 L137.0067,18.5728 Z" id="Fill-4" fill="#AD2031" mask="url(#mask-2)"></path>
            <path d="M153.3608,17.607 C152.8288,16.838 151.5938,15.694 150.5318,14.925 L152.0118,13.71 C153.0378,14.443 154.3678,15.498 154.9368,16.284 L153.3608,17.607 Z M152.8668,22.326 C152.2778,21.54 150.9488,20.396 149.8468,19.591 L151.2918,18.376 C152.3738,19.091 153.7788,20.199 154.4058,20.968 L152.8668,22.326 Z M157.6328,24.811 L157.6328,29.315 L155.4118,29.315 L155.4118,25.187 L149.6768,26.116 L149.3158,24.096 L155.4118,23.113 L155.4118,12.637 L157.6328,12.637 L157.6328,22.755 L159.5128,22.451 L159.8738,24.436 L157.6328,24.811 Z M148.2718,24.043 C148.0448,23.542 147.5888,22.791 147.1318,22.076 L147.1318,29.334 L144.9488,29.334 L144.9488,22.899 C144.3218,24.274 143.6198,25.544 142.8798,26.438 C142.6708,25.83 142.1758,24.954 141.8348,24.418 C142.8978,23.274 143.9618,21.361 144.6448,19.627 L142.0818,19.627 L142.0818,17.643 L144.9488,17.643 L144.9488,15.623 C144.2088,15.73 143.5058,15.837 142.8028,15.909 C142.7268,15.426 142.4418,14.729 142.1958,14.264 C144.3598,13.96 146.7338,13.406 148.3098,12.798 L149.5818,14.532 C148.8408,14.8 148.0068,15.015 147.1318,15.194 L147.1318,17.643 L149.6388,17.643 L149.6388,19.627 L147.1318,19.627 L147.1318,19.77 C147.6828,20.271 149.2408,21.951 149.6008,22.362 L148.2718,24.043 Z" id="Fill-5" fill="#AD2031" mask="url(#mask-2)"></path>
            <path d="M172.2847,21.1998 C172.8157,22.3798 173.5757,23.4518 174.5247,24.3648 C175.5127,23.4708 176.3287,22.4158 176.8987,21.1998 L172.2847,21.1998 Z M179.7657,19.7698 C179.0447,22.2548 177.8297,24.2028 176.2337,25.7048 C177.4687,26.5268 178.9307,27.1168 180.6207,27.5108 C180.1457,27.9388 179.4997,28.7978 179.1777,29.3508 C177.3357,28.8328 175.7597,28.0998 174.4487,27.0988 C172.9687,28.0638 171.2967,28.7798 169.4557,29.2978 C169.2087,28.7258 168.6577,27.8318 168.2397,27.3668 C169.9107,26.9918 171.4487,26.4198 172.7777,25.6158 C171.6577,24.4178 170.7647,23.0058 170.0817,21.3608 L170.6507,21.1998 L169.6637,21.1998 L169.6637,19.2868 L173.4047,19.2868 L173.4047,17.1418 L169.3217,17.1418 L169.3217,15.1758 L173.4047,15.1758 L173.4047,12.6198 L175.6447,12.6198 L175.6447,15.1758 L179.8987,15.1758 L179.8987,17.1418 L175.6447,17.1418 L175.6447,19.2868 L177.9247,19.2868 L178.3227,19.1978 L179.7657,19.7698 Z M169.2457,22.1828 C168.5817,22.3618 167.8977,22.5408 167.2147,22.7018 L167.2147,26.9738 C167.2147,28.0108 167.0057,28.5118 166.3597,28.8508 C165.7327,29.1728 164.8217,29.2258 163.4927,29.2258 C163.3977,28.6898 163.1127,27.8498 162.8467,27.2958 C163.5877,27.3138 164.3657,27.3138 164.6127,27.3138 C164.8977,27.3138 164.9737,27.2238 164.9737,26.9558 L164.9737,23.2738 L163.1327,23.7028 L162.5437,21.6828 C163.2457,21.5578 164.0617,21.3788 164.9737,21.1638 L164.9737,17.9998 L162.7897,17.9998 L162.7897,16.0338 L164.9737,16.0338 L164.9737,12.6368 L167.2147,12.6368 L167.2147,16.0338 L169.0757,16.0338 L169.0757,17.9998 L167.2147,17.9998 L167.2147,20.6458 L168.9617,20.2348 L169.2457,22.1828 Z" id="Fill-6" fill="#AD2031" mask="url(#mask-2)"></path>
            <path d="M46.5347,0.0045 C46.0157,-0.1765 44.3697,5.1765 38.8497,11.9725 C38.5857,12.2985 38.4057,12.5085 38.3207,12.6135 C31.1057,22.2455 20.7967,28.1265 19.4557,28.6725 C18.0557,29.2395 17.8117,29.9515 18.9627,30.4495 C27.5367,34.0265 27.3097,41.8605 25.8297,45.8345 C24.9507,48.3965 22.5257,48.9915 21.0207,49.1325 C19.2757,49.2995 19.5677,48.3555 19.5677,48.3555 C20.3657,46.5085 20.2057,44.2915 20.1467,43.7195 C20.1387,43.6355 20.1857,43.5585 20.2647,43.5285 C20.7337,43.3485 22.2817,42.7385 22.5167,42.4325 C22.9437,41.8755 23.0817,37.4555 19.5907,35.4975 C13.5307,32.0945 9.7087,36.6405 9.0267,37.5495 C8.9647,37.6335 8.8447,37.6495 8.7627,37.5845 C3.6287,33.5525 5.1267,26.5945 5.1747,26.3795 C5.1747,26.3755 5.1757,26.3715 5.1767,26.3675 C5.3887,24.8105 6.0717,23.2125 6.4437,22.4285 C6.5207,22.2665 6.3477,22.0975 6.1897,22.1825 C5.5757,22.5115 4.9637,22.9245 4.3837,23.4415 C0.7877,26.6515 0.8417,31.7255 0.9307,33.2615 C0.9387,33.3965 0.8067,33.4915 0.6807,33.4455 C0.5817,33.4095 0.4607,33.3545 0.3247,33.2695 C0.2067,33.1955 0.0507,33.2705 0.0397,33.4085 C-0.1843,36.2285 0.6007,39.0875 0.8897,40.0215 C0.9327,40.1615 0.8077,40.2945 0.6667,40.2565 C0.5687,40.2315 0.4547,40.1985 0.3277,40.1605 C0.2047,40.1235 0.0797,40.2185 0.0857,40.3465 C0.2217,43.2265 1.2667,45.1325 1.7847,45.9105 C1.8807,46.0535 1.7487,46.2365 1.5817,46.1935 C1.4887,46.1695 1.4017,46.1435 1.3057,46.1095 C1.1677,46.0605 1.0277,46.1845 1.0617,46.3275 C1.4597,48.0065 2.9957,49.4425 3.7577,50.0695 C3.8947,50.1835 3.8087,50.4085 3.6307,50.3995 C3.6267,50.3995 3.6217,50.3985 3.6177,50.3985 C3.4607,50.3885 3.3587,50.5635 3.4517,50.6915 C4.1217,51.6185 5.6877,52.8585 7.0697,53.3795 C11.0777,54.9475 14.1267,53.9735 14.5257,53.8325 C14.5567,53.8205 14.5897,53.8185 14.6227,53.8255 C15.2597,53.9555 18.4787,54.8475 21.7277,54.3415 C33.4067,52.5305 36.5537,43.9995 36.9017,42.9495 C37.2557,41.9025 36.9697,41.8895 36.6247,42.3305 C36.1587,42.9215 35.4017,43.2705 34.8237,43.4625 C34.6347,43.5255 34.4917,43.2845 34.6387,43.1505 C37.4967,40.5505 39.1017,36.3755 39.3857,35.3335 C39.7927,33.8345 39.0727,34.4765 38.8417,34.7315 C37.8647,35.7975 36.8207,36.4885 36.1137,36.8815 C35.9337,36.9825 35.7487,36.7555 35.8827,36.5985 C38.4697,33.5735 39.6677,30.6385 40.0557,28.9715 C40.5057,27.0625 39.7057,27.9745 39.7057,27.9745 C38.7667,29.3205 37.7257,30.1585 36.9837,30.6395 C36.8027,30.7565 36.6007,30.5215 36.7447,30.3595 C41.9047,24.5585 42.8477,17.8835 43.0077,17.0545 C43.3217,15.3875 42.2977,16.8925 41.7827,17.6585 C40.6417,19.3525 39.1737,20.7145 38.1947,21.5245 C38.0267,21.6635 37.7987,21.4485 37.9267,21.2725 C40.5917,17.5925 43.3107,12.8725 45.1907,7.0575 C46.4137,3.2765 46.9237,0.1395 46.5347,0.0045 M13.5147,51.4805 C12.8407,51.7495 8.7787,46.6895 9.3797,43.0345 C9.3797,43.0345 11.7357,44.1285 13.1887,44.2395 C13.1887,44.2395 13.8447,47.2055 16.4497,49.3575 C16.4497,49.3575 15.4117,50.7195 13.5147,51.4805 M18.1247,42.2395 C17.3317,42.4505 15.5837,42.4995 15.2197,41.4735 C15.2177,41.4715 17.0607,38.4925 19.3267,40.9575 C19.3267,40.9575 19.8177,41.7825 18.1247,42.2395" id="Fill-7" fill="#AD2031" mask="url(#mask-2)"></path>
            <path d="M65.48,37.921 L63.416,47.519 C63.381,47.587 63.355,47.699 63.334,47.854 C62.894,49.908 62.199,51.293 61.251,52.008 C60.301,52.723 58.925,53.081 57.123,53.081 C56.397,53.081 55.733,53.048 55.129,52.984 C54.526,52.92 53.917,52.754 53.304,52.491 C52.691,52.226 52.186,51.801 51.79,51.214 C51.393,50.629 51.195,49.847 51.195,48.871 C51.195,48.593 51.228,48.244 51.296,47.824 L55.648,47.325 L55.648,47.499 C55.621,47.688 55.607,47.881 55.607,48.078 L55.607,48.393 C55.607,49.213 56.058,49.623 56.959,49.623 C57.393,49.623 57.732,49.515 57.976,49.298 C58.22,49.081 58.402,48.803 58.52,48.464 C58.638,48.126 58.762,47.645 58.891,47.021 L60.854,37.921 L65.48,37.921 Z" id="Fill-8" fill="#AD2031" mask="url(#mask-2)"></path>
            <path d="M70.6245,44.2452 C71.2125,43.9742 71.6445,43.6922 71.9205,43.3982 C72.1975,43.1052 72.3355,42.8372 72.3355,42.5952 C72.3355,42.3872 72.2385,42.2052 72.0465,42.0502 C71.8535,41.8942 71.6095,41.8172 71.3155,41.8172 C70.9465,41.8172 70.6505,41.9322 70.4265,42.1632 C70.2015,42.3932 70.0895,42.6732 70.0895,43.0002 C70.0895,43.2942 70.2675,43.7092 70.6245,44.2452 Z M71.2375,49.9572 C70.3165,49.0012 69.5995,48.1572 69.0865,47.4252 C68.0555,47.9612 67.5395,48.5632 67.5395,49.2312 C67.5395,49.4562 67.5995,49.6922 67.7175,49.9402 C67.8355,50.1882 68.0125,50.3852 68.2485,50.5322 C68.4845,50.6792 68.7755,50.7522 69.1215,50.7522 C69.7605,50.7522 70.4665,50.4872 71.2375,49.9572 Z M76.6905,48.4882 C76.3215,49.0012 75.8985,49.5142 75.4205,50.0272 C75.5415,50.1302 75.9015,50.4612 76.5005,51.0202 L74.5305,53.0412 C74.2825,52.8642 73.9425,52.5842 73.5115,52.2032 C73.3785,52.0782 73.2715,51.9852 73.1905,51.9272 C72.4655,52.3822 71.8085,52.6822 71.2215,52.8262 C70.6335,52.9702 69.9335,53.0412 69.1215,53.0412 C67.3815,53.0412 66.1105,52.6912 65.3105,51.9882 C64.5095,51.2852 64.1085,50.4552 64.1085,49.4992 C64.1085,47.6732 65.3185,46.3102 67.7385,45.4122 C67.2775,44.6052 67.0475,43.8452 67.0475,43.1302 C67.0475,42.1112 67.4455,41.3252 68.2435,40.7712 C69.0415,40.2192 70.0395,39.9422 71.2375,39.9422 C72.4365,39.9422 73.3995,40.2062 74.1285,40.7372 C74.8565,41.2672 75.2225,41.9242 75.2225,42.7072 C75.2225,43.2032 75.0925,43.6432 74.8335,44.0292 C74.5735,44.4152 74.2425,44.7522 73.8395,45.0402 C73.4365,45.3282 72.9295,45.6332 72.3175,45.9562 C72.2835,45.9682 72.1475,46.0402 71.9125,46.1722 L73.4935,48.0992 C73.7355,47.8002 74.0185,47.4722 74.3405,47.1142 C74.4375,47.0052 74.5015,46.9272 74.5305,46.8812 L76.6905,48.4882 Z" id="Fill-9" fill="#AD2031" mask="url(#mask-2)"></path>
            <polygon id="Fill-10" fill="#AD2031" mask="url(#mask-2)" points="95.2866 37.921 88.8306 43.544 93.3956 52.826 88.4136 52.826 85.6066 46.37 82.3536 49.166 81.5916 52.826 76.9446 52.826 80.1266 37.921 84.7736 37.921 83.5636 43.492 83.6036 43.544 89.2266 37.921"></polygon>
            <path d="M115.1958,42.0587 L110.8838,42.2927 C110.7898,40.9977 110.0678,40.3507 108.7178,40.3507 C108.1698,40.3507 107.7478,40.4677 107.4528,40.7017 C107.1578,40.9347 107.0098,41.2147 107.0098,41.5397 C107.0098,41.7777 107.1298,42.0027 107.3668,42.2167 C107.6038,42.4297 108.1668,42.7027 109.0538,43.0357 C110.1788,43.4687 111.0938,43.8787 111.7998,44.2657 C112.5048,44.6517 113.0808,45.1537 113.5278,45.7697 C113.9748,46.3867 114.1988,47.1557 114.1988,48.0787 C114.1988,48.9457 113.9568,49.7547 113.4718,50.5027 C112.9878,51.2517 112.2898,51.8687 111.3778,52.3527 C110.4668,52.8387 109.1698,53.0807 107.4888,53.0807 C105.1228,53.0807 103.4448,52.6267 102.4558,51.7177 C101.4668,50.8097 100.9708,49.6437 100.9708,48.2207 L100.9708,47.8747 L105.3018,47.5797 C105.3018,48.5087 105.5078,49.1647 105.9178,49.5477 C106.3278,49.9307 106.8948,50.1217 107.6208,50.1217 C108.3528,50.1217 108.9108,49.9627 109.2938,49.6437 C109.6758,49.3257 109.8678,48.9627 109.8678,48.5557 C109.8678,48.2507 109.7458,47.9697 109.5018,47.7117 C109.2578,47.4547 108.6578,47.1527 107.7018,46.8077 C105.5118,46.0207 104.1288,45.2957 103.5488,44.6317 C102.9688,43.9667 102.6788,43.1667 102.6788,42.2317 C102.6788,41.3777 102.9188,40.5987 103.3958,39.8927 C103.8748,39.1877 104.5688,38.6407 105.4798,38.2507 C106.3918,37.8617 107.4848,37.6667 108.7588,37.6667 C112.7928,37.6667 114.9378,39.1307 115.1958,42.0587" id="Fill-11" fill="#AD2031" mask="url(#mask-2)"></path>
            <path d="M128.438,45.7906 L124.697,45.9936 C124.52,45.0516 123.886,44.5806 122.795,44.5806 C121.785,44.5806 121.009,44.9886 120.466,45.8056 C119.924,46.6226 119.654,47.5126 119.654,48.4746 C119.654,49.0576 119.846,49.5046 120.233,49.8156 C120.619,50.1286 121.037,50.2846 121.484,50.2846 C122.588,50.2846 123.409,49.6746 123.944,48.4546 L127.818,48.8716 C126.862,51.6776 124.697,53.0806 121.321,53.0806 C117.518,53.0806 115.617,51.5246 115.617,48.4136 C115.617,46.6036 116.244,45.0476 117.498,43.7466 C118.751,42.4446 120.518,41.7946 122.795,41.7946 C124.428,41.7946 125.734,42.1286 126.709,42.7956 C127.685,43.4636 128.262,44.4616 128.438,45.7906" id="Fill-12" fill="#AD2031" mask="url(#mask-2)"></path>
            <path d="M135.9224,37.921 L135.3334,40.768 L131.1944,40.768 L131.7754,37.921 L135.9224,37.921 Z M135.0684,42.039 L132.7504,52.826 L128.5924,52.826 L130.9004,42.039 L135.0684,42.039 Z" id="Fill-13" fill="#AD2031" mask="url(#mask-2)"></path>
            <path d="M143.9741,46.4918 C144.0221,46.3428 144.0451,46.1368 144.0451,45.8718 C144.0451,45.3228 143.8811,44.9078 143.5521,44.6258 C143.2231,44.3448 142.8181,44.2038 142.3371,44.2038 C141.8281,44.2038 141.3611,44.3958 140.9341,44.7788 C140.5071,45.1608 140.1821,45.7328 139.9571,46.4918 L143.9741,46.4918 Z M147.4311,50.0608 C146.8281,51.1318 146.0391,51.9028 145.0671,52.3738 C144.0941,52.8448 142.8761,53.0808 141.4111,53.0808 C139.2841,53.0808 137.7701,52.6008 136.8721,51.6418 C135.9741,50.6828 135.5251,49.5088 135.5251,48.1178 C135.5251,47.1558 135.7351,46.2488 136.1561,45.3988 C136.5761,44.5478 137.1451,43.8348 137.8631,43.2588 C138.5811,42.6818 139.2901,42.2938 139.9891,42.0948 C140.6871,41.8938 141.5031,41.7948 142.4391,41.7948 C144.4521,41.7948 145.8961,42.2318 146.7701,43.1058 C147.6451,43.9798 148.0811,45.0548 148.0811,46.3288 C148.0811,46.7498 147.9911,47.4708 147.8071,48.4948 L139.5811,48.4948 C139.6971,49.9388 140.3441,50.6608 141.5241,50.6608 C142.3241,50.6608 142.9601,50.3358 143.4351,49.6838 L147.4311,50.0608 Z" id="Fill-14" fill="#AD2031" mask="url(#mask-2)"></path>
            <path d="M154.3481,43.7062 C155.4871,42.4322 156.8751,41.7942 158.5161,41.7942 C159.4931,41.7942 160.2251,42.0432 160.7121,42.5412 C161.2011,43.0392 161.4451,43.6522 161.4451,44.3772 C161.4451,44.8112 161.3091,45.6652 161.0381,46.9392 L159.7871,52.8262 L155.6391,52.8262 L156.7061,47.8132 C156.9641,46.5872 157.0931,45.8852 157.0931,45.7082 C157.0931,45.1122 156.8221,44.8142 156.2801,44.8142 C155.6691,44.8142 155.1371,45.1012 154.6831,45.6732 C154.2291,46.2462 153.8871,47.0712 153.6571,48.1492 L152.6401,52.8262 L148.4711,52.8262 L150.7891,42.0392 L154.6621,42.0392 L154.3071,43.6652 L154.3481,43.7062 Z" id="Fill-15" fill="#AD2031" mask="url(#mask-2)"></path>
            <path d="M171.1333,42.0387 L170.5023,44.9967 L168.3373,44.9967 L167.5433,48.8097 C167.4893,48.9727 167.4623,49.1457 167.4623,49.3287 C167.4623,49.8157 167.7843,50.0607 168.4283,50.0607 C168.6313,50.0607 169.0593,49.9957 169.7093,49.8667 L169.0893,52.8257 C167.8423,52.9957 166.9273,53.0807 166.3443,53.0807 C165.1853,53.0807 164.3623,52.8027 163.8783,52.2467 C163.3943,51.6907 163.1523,51.0837 163.1523,50.4267 C163.1523,50.2097 163.2493,49.6307 163.4463,48.6877 L164.2193,44.9967 L162.7353,44.9967 L163.3453,42.0387 L164.8603,42.0387 L165.2153,40.3507 L169.8423,38.0427 L168.9873,42.0387 L171.1333,42.0387 Z" id="Fill-16" fill="#AD2031" mask="url(#mask-2)"></path>
            <path d="M178.2739,37.921 L177.6839,40.768 L173.5459,40.768 L174.1269,37.921 L178.2739,37.921 Z M177.4199,42.039 L175.1019,52.826 L170.9439,52.826 L173.2519,42.039 L177.4199,42.039 Z" id="Fill-17" fill="#AD2031" mask="url(#mask-2)"></path>
            <path d="M192.5571,37.921 L191.9671,40.768 L187.8291,40.768 L188.4091,37.921 L192.5571,37.921 Z M191.7031,42.039 L189.3951,52.826 L185.2271,52.826 L187.5351,42.039 L191.7031,42.039 Z M187.4731,38.124 L186.8121,40.585 C186.2291,40.401 185.7481,40.31 185.3691,40.31 C185.0501,40.31 184.7921,40.385 184.5961,40.533 C184.3991,40.683 184.2271,41.185 184.0781,42.039 L186.2841,42.039 L185.6431,44.997 L183.4571,44.997 L181.7891,52.826 L177.8751,52.826 L179.5831,44.997 L178.2721,44.997 L178.8921,42.039 L180.1831,42.039 C180.4271,40.893 180.5881,40.179 180.6661,39.899 C180.7441,39.617 180.8981,39.298 181.1291,38.942 C181.3591,38.587 181.7131,38.285 182.1921,38.037 C182.6691,37.79 183.2901,37.667 184.0571,37.667 C185.0201,37.667 186.1591,37.819 187.4731,38.124 Z" id="Fill-18" fill="#AD2031" mask="url(#mask-2)"></path>
            <path d="M204.7729,45.7906 L201.0319,45.9936 C200.8549,45.0516 200.2209,44.5806 199.1299,44.5806 C198.1199,44.5806 197.3439,44.9886 196.8019,45.8056 C196.2589,46.6226 195.9889,47.5126 195.9889,48.4746 C195.9889,49.0576 196.1819,49.5046 196.5679,49.8156 C196.9549,50.1286 197.3709,50.2846 197.8189,50.2846 C198.9229,50.2846 199.7439,49.6746 200.2789,48.4546 L204.1529,48.8716 C203.1969,51.6776 201.0319,53.0806 197.6559,53.0806 C193.8529,53.0806 191.9519,51.5246 191.9519,48.4136 C191.9519,46.6036 192.5789,45.0476 193.8329,43.7466 C195.0859,42.4446 196.8529,41.7946 199.1299,41.7946 C200.7629,41.7946 202.0689,42.1286 203.0449,42.7956 C204.0209,43.4636 204.5969,44.4616 204.7729,45.7906" id="Fill-19" fill="#AD2031" mask="url(#mask-2)"></path>
        </g>
    </g>
</svg>